<svg width="32" height="32" viewBox="0 0 32 32" fill="none" xmlns="http://www.w3.org/2000/svg">
<path d="M17.3333 4C10.7067 4 5.33334 9.37333 5.33334 16H1.33334L6.52001 21.1867L6.61334 21.3733L12 16H8.00001C8.00001 10.84 12.1733 6.66667 17.3333 6.66667C22.4933 6.66667 26.6667 10.84 26.6667 16C26.6667 21.16 22.4933 25.3333 17.3333 25.3333C14.76 25.3333 12.4267 24.28 10.7467 22.5867L8.85334 24.48C11.0267 26.6533 14.0133 28 17.3333 28C23.96 28 29.3333 22.6267 29.3333 16C29.3333 9.37333 23.96 4 17.3333 4ZM16 10.6667V17.3333L21.7067 20.72L22.6667 19.1067L18 16.3333V10.6667H16Z" fill="#92AC97"/>
</svg>
